<svg width="313" height="181" viewBox="0 0 313 181" fill="none" xmlns="http://www.w3.org/2000/svg">
<path d="M105.88 103.875H94.5204C92.3747 103.875 90.3553 102.739 89.3455 100.846L66.7528 62.2234H66.3742C66.5004 63.9905 66.6266 65.7575 66.6266 67.5245C66.7528 69.2916 66.7528 71.0586 66.879 72.8256C67.0052 74.5926 67.0052 76.3597 67.1315 78.1267L67.2577 101.603C67.2577 102.991 66.1217 104.127 64.7334 104.127H56.7817L56.5293 48.9707H68.5198C70.1607 48.9707 71.8015 49.8542 72.685 51.3688L95.4039 90.2435H95.6563C95.6563 88.4764 95.5301 86.8356 95.4039 85.1948C95.2777 83.554 95.2777 81.787 95.1515 80.1462C95.0253 78.5053 95.0253 76.7383 94.899 75.0975L94.7728 51.2426C94.7728 49.9805 95.7826 48.9707 97.0447 48.9707H105.249L105.88 103.875Z" fill="white"/>
<path d="M136.804 71.313L147.28 50.3611C147.911 49.2251 149.047 48.4678 150.309 48.4678H160.785L142.61 82.1676L142.736 101.226C142.736 102.615 141.6 103.751 140.338 103.751H131.124L130.998 82.6724L112.57 48.594H123.172C124.435 48.594 125.571 49.3513 126.202 50.4873L136.804 71.313Z" fill="white"/>
<path d="M188.803 72.4457L207.862 72.3195C209.377 72.3195 210.765 73.5817 210.765 75.0963L210.891 100.844C207.988 101.854 204.959 102.611 201.93 103.116C198.774 103.747 195.24 104 191.328 104C185.9 104 181.23 102.99 177.318 100.844C173.531 98.6987 170.502 95.5433 168.609 91.2519C166.589 87.0868 165.58 81.7857 165.58 75.7273C165.58 69.9214 166.589 64.8727 168.861 60.7076C171.007 56.4163 174.289 53.1346 178.58 50.8627C182.871 48.5909 188.046 47.3287 194.231 47.3287C197.134 47.3287 200.037 47.5811 202.94 48.2122C205.843 48.8433 208.367 49.6006 210.639 50.6103L207.61 58.0571C207.231 59.0668 205.969 59.5717 204.959 59.193C203.697 58.6881 202.435 58.3095 201.046 57.9309C198.901 57.2998 196.629 57.0473 194.231 57.0473C190.823 57.0473 187.92 57.8046 185.396 59.4454C182.871 60.96 180.978 63.2319 179.59 66.0087C178.201 68.7854 177.57 72.0671 177.57 75.9798C177.57 79.64 178.075 82.7954 179.085 85.5722C180.094 88.349 181.609 90.4946 183.755 92.1355C185.9 93.6501 188.677 94.5336 192.085 94.4073C193.726 94.4073 195.114 94.2811 196.25 94.1549C197.386 94.0287 198.522 93.7763 199.532 93.65V82.6692C199.532 82.4168 199.279 82.1644 199.027 82.1644H191.959C190.318 82.1644 189.056 80.9022 189.056 79.2614L188.803 72.4457Z" fill="white"/>
<path d="M244.97 72.1951L263.777 72.0689C265.417 72.0689 266.68 73.331 266.68 74.9719L266.806 100.468C266.806 100.594 266.806 100.594 266.68 100.72C263.777 101.73 260.874 102.487 257.844 102.992C254.689 103.623 251.155 103.875 247.242 103.875C241.815 103.875 237.145 102.866 233.232 100.72C229.446 98.5743 226.417 95.4189 224.523 91.1275C222.504 86.9624 221.494 81.6613 221.494 75.6029C221.494 69.797 222.504 64.7483 224.776 60.5832C226.921 56.2919 230.203 53.0102 234.494 50.7383C238.786 48.4664 243.961 47.2043 250.145 47.2043C253.048 47.2043 255.951 47.4567 258.854 48.0878C261.631 48.7189 264.155 49.4762 266.427 50.4859C266.553 50.4859 266.553 50.6121 266.553 50.7383L263.65 57.9327C263.272 58.9424 262.01 59.5735 260.874 59.0686C259.738 58.5637 258.349 58.1851 256.961 57.8065C254.815 57.1754 252.543 56.9229 250.145 56.9229C246.737 56.9229 243.834 57.6802 241.31 59.321C238.786 60.8356 236.893 63.1075 235.504 65.8843C234.116 68.661 233.485 71.9427 233.485 75.8554C233.485 79.5156 233.99 82.6711 234.999 85.4478C236.009 88.2246 237.524 90.3703 239.669 92.0111C241.815 93.5257 244.592 94.4092 248 94.2829C249.64 94.2829 251.029 94.1567 252.165 94.0305C253.301 93.9043 254.31 93.6519 255.194 93.5257C255.32 93.5257 255.32 93.3994 255.32 93.2732V82.1662C255.32 82.04 255.194 81.9138 255.068 81.9138H247.747C246.106 81.9138 244.844 80.6516 244.844 79.0108V72.4475C244.718 72.3213 244.844 72.1951 244.97 72.1951Z" fill="white"/>
<path d="M312.37 87.5935C312.37 90.8751 311.612 93.6519 309.971 96.1762C308.457 98.5743 306.059 100.468 303.03 101.856C300 103.244 296.34 103.875 292.049 103.875C290.156 103.875 288.262 103.749 286.495 103.497C284.728 103.244 282.961 102.866 281.194 102.361C279.553 101.856 277.913 101.225 276.398 100.594V92.3897C276.398 91.1275 277.66 90.244 278.796 90.7489C280.689 91.5062 282.583 92.1373 284.602 92.8946C287.379 93.7781 290.282 94.2829 292.932 94.2829C294.826 94.2829 296.34 94.0305 297.602 93.5257C298.738 93.0208 299.622 92.2635 300.127 91.38C300.631 90.4965 300.884 89.4867 300.884 88.3508C300.884 86.9624 300.379 85.8265 299.496 84.8167C298.612 83.807 297.224 82.9235 295.709 82.04C294.068 81.1565 292.301 80.2729 290.156 79.2632C288.893 78.6321 287.505 77.8748 285.99 77.1175C284.476 76.3602 283.087 75.2243 281.699 73.9621C280.311 72.7 279.175 71.1854 278.291 69.4183C277.408 67.6513 277.029 65.5056 276.903 62.9813C276.903 59.6997 277.66 56.9229 279.175 54.5248C280.689 52.1267 282.835 50.3597 285.612 49.0975C288.388 47.8354 291.67 47.2043 295.583 47.2043C298.486 47.2043 301.136 47.4567 303.787 48.214C306.437 48.8451 309.088 49.8548 311.991 51.117L309.088 58.1851C308.583 59.321 307.321 59.8259 306.311 59.4473C304.544 58.8162 302.903 58.3113 301.515 57.8065C299.496 57.3016 297.476 56.9229 295.33 56.9229C293.816 56.9229 292.68 57.1754 291.544 57.6802C290.534 58.1851 289.777 58.8162 289.272 59.6997C288.767 60.5832 288.515 61.4667 288.515 62.6027C288.515 63.8648 288.893 65.0008 289.651 65.8843C290.408 66.7678 291.544 67.6513 293.185 68.4086C294.699 69.2921 296.719 70.1756 298.991 71.3116C301.767 72.5738 304.292 73.9621 306.185 75.4767C308.204 76.8651 309.719 78.6321 310.855 80.5254C311.865 82.2924 312.37 84.6905 312.37 87.5935Z" fill="white"/>
<path d="M97.0447 0.378649C120.773 2.39811 140.716 12.1168 156.997 29.6608C154.221 29.6608 151.823 29.6608 149.046 29.6608C148.162 29.6608 147.657 29.2822 147.279 28.9035C136.803 20.5732 124.938 15.2722 111.812 13.0003C94.5204 9.97108 77.986 12.6216 62.209 20.5732C54.2574 24.6122 47.1893 29.787 41.1309 36.2241C40.626 36.7289 40.2474 37.4862 39.7425 36.2241C36.7133 29.5346 30.7811 26.8841 28.5093 26.0005C28.1306 25.8743 28.0044 25.2432 28.2568 24.9908C30.2763 23.0976 32.422 21.2043 34.5676 19.4373C44.6649 11.6119 55.8982 6.1846 68.1412 2.90297C73.316 1.51459 78.4909 0.757298 83.792 0.378649C84.1706 0.378649 84.6755 0.504865 84.9279 0.126216C85.0541 0.126216 85.1803 0.126216 85.3066 0C86.4425 0.252432 87.4522 0.252432 88.5882 0C89.5979 0 90.4814 0 91.4912 0.126216C92.1222 0.252432 92.7533 0.252432 93.5106 0.126216C93.6368 0.126216 93.8893 0.126216 94.1417 0.126216C94.6466 0.378649 95.1514 0.126216 95.6563 0.252432C96.1612 0.378649 96.5398 0.252432 97.0447 0.378649Z" fill="url(#paint0_linear_1_285)"/>
<path d="M158.638 149.694C129.482 185.287 69.2771 194.122 28.888 156.636C28.2569 156.005 28.5093 154.995 29.2666 154.617C33.9366 152.723 37.3444 149.568 39.6163 145.024C39.8688 144.393 40.7523 144.393 41.1309 144.772C43.2766 147.044 45.5485 149.063 47.9466 151.083C56.4031 158.151 65.8693 162.947 76.3453 166.102C85.6853 168.879 95.2777 169.889 104.996 168.879C121.278 167.365 135.793 161.432 148.415 150.956C149.551 149.947 150.687 149.442 152.327 149.442C154.473 149.82 156.493 149.694 158.638 149.694Z" fill="url(#paint1_linear_1_285)"/>
<path d="M6.0427 123.313C-2.03515 101.352 -2.03515 79.6423 6.16891 57.5545C6.42134 57.0496 7.05243 56.9234 7.43107 57.3021C8.18837 58.1856 8.94567 58.9429 9.70297 59.7002C13.3632 62.7294 17.6546 64.244 22.577 63.9915C23.5868 63.9915 23.9654 64.1177 23.5868 65.2537C20.1789 74.8461 18.9168 84.8172 19.4216 95.0407C19.8003 102.109 21.0624 109.051 23.4605 115.74C23.8392 116.876 23.713 117.129 22.4508 117.129C16.5186 117.129 11.5962 119.274 7.43107 123.692C7.05243 124.07 6.29513 123.944 6.0427 123.313Z" fill="url(#paint2_linear_1_285)"/>
<path d="M30.529 137.324C30.529 141.742 26.8687 145.402 22.4511 145.276C18.0336 145.276 14.4995 141.615 14.4995 137.198C14.4995 132.906 18.1598 129.246 22.4511 129.246C26.8687 129.246 30.529 132.906 30.529 137.324Z" fill="url(#paint3_linear_1_285)"/>
<path d="M22.5774 37.3568C26.9949 37.3568 30.529 41.0171 30.529 45.3084C30.4028 49.5998 26.8687 53.1338 22.5774 53.1338C18.1598 53.1338 14.4995 49.4735 14.6257 45.1822C14.6257 40.8908 18.1598 37.3568 22.5774 37.3568Z" fill="url(#paint4_linear_1_285)"/>
<path d="M67.762 135.681L66.626 132.147H59.8104L58.6744 135.681C58.5482 136.186 58.0433 136.565 57.5385 136.565H54.2568L60.5676 118.768C60.6939 118.263 61.1987 117.885 61.7036 117.885H64.7328C65.2376 117.885 65.7425 118.263 65.8687 118.768L72.1795 136.565H68.7717C68.3931 136.565 67.8882 136.186 67.762 135.681ZM65.7425 128.865L64.3541 124.574C64.2279 124.322 64.1017 123.943 63.9755 123.438C63.8493 122.933 63.7231 122.555 63.5968 122.05C63.4706 121.545 63.092 121.545 62.9658 122.176C62.8395 122.681 62.7133 123.186 62.5871 123.691C62.4609 124.195 62.3347 124.448 62.3347 124.7L60.9463 128.992H65.7425V128.865Z" fill="white"/>
<path d="M166.337 135.681L165.201 132.147H158.386L157.25 135.681C157.124 136.186 156.619 136.565 156.114 136.565H152.706L159.017 118.768C159.143 118.263 159.648 117.885 160.153 117.885H163.182C163.687 117.885 164.192 118.263 164.318 118.768L170.629 136.565H167.221C166.842 136.565 166.464 136.186 166.337 135.681ZM164.318 128.865L162.93 124.574C162.803 124.322 162.677 123.943 162.551 123.438C162.425 122.933 162.298 122.555 162.172 122.05C162.046 121.545 161.667 121.545 161.541 122.176C161.415 122.681 161.289 123.186 161.163 123.691C161.036 124.195 160.91 124.448 160.91 124.7L159.522 128.992H164.318V128.865Z" fill="white"/>
<path d="M89.7236 118.011V130.001C89.7236 131.264 89.4712 132.399 88.8401 133.409C88.3352 134.419 87.4517 135.302 86.3158 135.807C85.1798 136.438 83.7914 136.691 82.0244 136.691C79.6263 136.691 77.733 136.06 76.4709 134.798C75.2087 133.535 74.5776 131.895 74.5776 129.875V117.885H77.8593C78.2379 117.885 78.6166 118.137 78.6166 118.642V129.37C78.6166 130.885 78.869 132.021 79.5001 132.652C80.1312 133.283 81.0147 133.535 82.2768 133.535C83.1603 133.535 83.7914 133.409 84.4225 133.031C84.9274 132.778 85.306 132.273 85.5585 131.642C85.8109 131.011 85.9371 130.254 85.9371 129.244V118.642C85.9371 118.263 86.1895 117.885 86.6944 117.885H89.7236V118.011Z" fill="white"/>
<path d="M100.451 136.563H97.4222V121.291H93.2571C92.7522 121.291 92.3735 120.912 92.3735 120.407V118.009H106.384V120.407C106.384 120.912 106.005 121.291 105.5 121.291H101.335V135.679C101.335 136.184 100.956 136.563 100.451 136.563Z" fill="white"/>
<path d="M178.201 136.563H175.172V121.291H171.007C170.502 121.291 170.124 120.912 170.124 120.407V118.009H184.134V120.407C184.134 120.912 183.755 121.291 183.25 121.291H179.085V135.679C179.085 136.184 178.58 136.563 178.201 136.563Z" fill="white"/>
<path d="M126.074 127.223C126.074 128.611 125.948 130 125.569 131.136C125.191 132.272 124.686 133.281 123.928 134.165C123.171 135.048 122.288 135.679 121.152 136.058C120.016 136.563 118.754 136.689 117.239 136.689C115.724 136.689 114.462 136.437 113.326 136.058C112.19 135.679 111.307 134.922 110.549 134.165C109.792 133.281 109.287 132.272 108.909 131.136C108.53 130 108.404 128.611 108.404 127.223C108.404 125.33 108.656 123.689 109.287 122.174C109.918 120.66 110.928 119.65 112.19 118.893C113.452 118.135 115.219 117.757 117.239 117.757C119.258 117.757 120.899 118.135 122.161 118.893C123.424 119.65 124.433 120.786 125.064 122.174C125.822 123.689 126.074 125.33 126.074 127.223ZM112.569 127.223C112.569 128.485 112.695 129.621 113.074 130.631C113.452 131.514 113.957 132.272 114.588 132.776C115.219 133.281 116.229 133.534 117.239 133.534C118.375 133.534 119.258 133.281 120.016 132.776C120.773 132.272 121.278 131.514 121.53 130.631C121.909 129.747 122.035 128.611 122.035 127.223C122.035 125.33 121.657 123.689 120.899 122.679C120.142 121.543 119.006 121.038 117.365 121.038C116.229 121.038 115.346 121.291 114.715 121.796C113.957 122.3 113.452 123.058 113.2 123.941C112.695 124.825 112.569 125.961 112.569 127.223Z" fill="white"/>
<path d="M137.812 136.563L133.395 122.048H133.269C133.269 122.427 133.269 122.931 133.395 123.563C133.395 124.32 133.521 124.951 133.521 125.834C133.521 126.592 133.521 127.349 133.521 127.98V135.679C133.521 136.184 133.142 136.563 132.638 136.563H130.113V118.009H134.783C135.162 118.009 135.667 118.261 135.793 118.766L139.958 132.271H140.084L144.502 118.766C144.628 118.388 145.007 118.135 145.512 118.135H150.182V136.689H147.405C146.9 136.689 146.521 136.31 146.521 135.805V127.98C146.521 127.349 146.521 126.718 146.521 125.961C146.521 125.203 146.521 124.446 146.648 123.815C146.648 123.184 146.648 122.553 146.774 122.3H146.648L142.104 136.184C141.978 136.563 141.599 136.941 141.094 136.941H137.812V136.563Z" fill="white"/>
<path d="M187.542 136.563V118.766C187.542 118.388 187.92 118.009 188.299 118.009H191.454V135.805C191.454 136.184 191.076 136.563 190.697 136.563H187.542Z" fill="white"/>
<path d="M212.911 127.223C212.911 128.611 212.785 130 212.406 131.136C212.027 132.272 211.523 133.281 210.765 134.165C210.008 135.048 209.125 135.679 207.989 136.058C206.853 136.563 205.59 136.689 204.076 136.689C202.561 136.689 201.299 136.437 200.163 136.058C199.027 135.553 198.144 134.922 197.386 134.165C196.629 133.281 196.124 132.272 195.746 131.136C195.367 130 195.241 128.611 195.241 127.223C195.241 125.33 195.493 123.689 196.124 122.174C196.755 120.66 197.765 119.65 199.027 118.893C200.289 118.135 202.056 117.757 204.076 117.757C206.095 117.757 207.736 118.135 208.998 118.893C210.26 119.65 211.27 120.786 211.901 122.174C212.659 123.689 212.911 125.33 212.911 127.223ZM199.406 127.223C199.406 128.485 199.532 129.621 199.911 130.631C200.289 131.514 200.794 132.272 201.425 132.776C202.056 133.281 203.066 133.534 204.076 133.534C205.212 133.534 206.095 133.281 206.853 132.776C207.61 132.272 208.115 131.514 208.367 130.631C208.746 129.747 208.872 128.611 208.872 127.223C208.872 125.33 208.493 123.689 207.736 122.679C206.979 121.543 205.843 121.038 204.202 121.038C203.066 121.038 202.183 121.291 201.552 121.796C200.794 122.3 200.289 123.058 200.037 123.941C199.532 124.825 199.406 125.961 199.406 127.223Z" fill="white"/>
<path d="M233.232 136.563H229.193C228.562 136.563 228.057 136.184 227.804 135.679L220.231 122.427H220.105C220.105 123.058 220.231 123.563 220.231 124.194C220.231 124.825 220.231 125.33 220.358 125.961C220.358 126.592 220.358 127.097 220.484 127.728V135.553C220.484 136.058 220.105 136.437 219.6 136.437H216.95V118.009H220.989C221.494 118.009 222.125 118.261 222.377 118.766L229.95 131.893H230.076C230.076 131.262 230.076 130.757 229.95 130.126C229.95 129.621 229.95 128.99 229.824 128.485C229.824 127.98 229.824 127.349 229.824 126.844V119.019C229.824 118.514 230.202 118.135 230.707 118.135H233.358V136.563H233.232Z" fill="white"/>
<path d="M255.698 131.388C255.698 132.524 255.446 133.407 254.941 134.291C254.436 135.048 253.679 135.679 252.669 136.184C251.659 136.563 250.397 136.815 249.009 136.815C248.378 136.815 247.746 136.815 247.115 136.689C246.484 136.563 245.853 136.437 245.348 136.31C244.843 136.184 244.212 135.932 243.708 135.679V132.776C243.708 132.398 244.086 132.145 244.339 132.398C244.97 132.65 245.727 132.903 246.358 133.155C247.368 133.407 248.251 133.66 249.135 133.66C249.766 133.66 250.271 133.534 250.649 133.407C251.028 133.281 251.28 133.029 251.533 132.65C251.659 132.398 251.785 132.019 251.785 131.64C251.785 131.135 251.659 130.757 251.28 130.504C251.028 130.126 250.523 129.873 250.018 129.621C249.513 129.368 248.882 128.99 248.125 128.737C247.746 128.485 247.242 128.233 246.737 127.98C246.232 127.728 245.727 127.349 245.348 126.97C244.843 126.592 244.465 126.087 244.212 125.456C243.96 124.825 243.834 124.067 243.834 123.31C243.834 122.174 244.086 121.291 244.591 120.407C245.096 119.65 245.853 119.019 246.737 118.64C247.62 118.261 248.756 118.009 250.145 118.009C251.154 118.009 252.038 118.135 252.921 118.388C253.805 118.64 254.688 118.893 255.698 119.397L254.688 121.795C254.562 122.174 254.183 122.3 253.805 122.174C253.174 121.922 252.669 121.795 252.164 121.669C251.533 121.417 250.776 121.417 250.145 121.417C249.64 121.417 249.261 121.543 248.882 121.669C248.504 121.795 248.251 122.048 248.125 122.3C247.999 122.553 247.873 122.931 247.873 123.31C247.873 123.689 247.999 124.067 248.251 124.446C248.504 124.698 248.882 125.077 249.387 125.33C249.892 125.582 250.523 125.961 251.28 126.339C252.29 126.844 253.048 127.223 253.679 127.728C254.31 128.233 254.815 128.737 255.193 129.495C255.446 129.621 255.698 130.378 255.698 131.388Z" fill="white"/>
<path d="M274.125 118.009V130C274.125 131.262 273.873 132.398 273.242 133.407C272.737 134.417 271.854 135.301 270.718 135.806C269.582 136.437 268.193 136.689 266.426 136.689C264.028 136.689 262.135 136.058 260.873 134.796C259.611 133.534 258.979 131.893 258.979 129.873V117.883H262.009C262.514 117.883 262.892 118.262 262.892 118.766V129.242C262.892 130.757 263.145 131.893 263.776 132.524C264.407 133.155 265.29 133.407 266.552 133.407C267.436 133.407 268.067 133.281 268.698 132.903C269.203 132.65 269.582 132.145 269.834 131.514C270.087 130.883 270.213 130.126 270.213 129.116V118.64C270.213 118.135 270.591 117.757 271.096 117.757H274.125V118.009Z" fill="white"/>
<path d="M278.669 136.563V118.766C278.669 118.261 279.048 118.009 279.427 118.009H282.582V135.805C282.582 136.184 282.203 136.563 281.825 136.563H278.669Z" fill="white"/>
<path d="M293.437 136.563H290.534V121.291H286.495C285.864 121.291 285.485 120.786 285.485 120.281V118.009H299.495V120.281C299.495 120.912 298.99 121.291 298.486 121.291H294.447V135.553C294.447 136.058 294.068 136.563 293.437 136.563Z" fill="white"/>
<path d="M313 136.563H302.272V118.009H313V120.533C313 120.912 312.748 121.291 312.243 121.291H306.185V124.572C306.185 124.951 306.563 125.33 306.942 125.33H312.117C312.369 125.33 312.495 125.456 312.495 125.708V128.106C312.495 128.359 312.369 128.485 312.117 128.485H306.942C306.563 128.485 306.185 128.864 306.185 129.242V133.281H311.991C312.495 133.281 312.874 133.66 312.874 134.165V136.563H313Z" fill="white"/>
<defs>
<linearGradient id="paint0_linear_1_285" x1="-62.4346" y1="-79.8598" x2="293.823" y2="167.274" gradientUnits="userSpaceOnUse">
<stop stop-color="#15FF5F"/>
<stop offset="0.1275" stop-color="#12E86B"/>
<stop offset="1" stop-color="#0051BA"/>
</linearGradient>
<linearGradient id="paint1_linear_1_285" x1="-121.117" y1="4.7364" x2="235.141" y2="251.87" gradientUnits="userSpaceOnUse">
<stop stop-color="#15FF5F"/>
<stop offset="0.1275" stop-color="#12E86B"/>
<stop offset="1" stop-color="#0051BA"/>
</linearGradient>
<linearGradient id="paint2_linear_1_285" x1="-118.668" y1="1.20362" x2="237.59" y2="248.337" gradientUnits="userSpaceOnUse">
<stop stop-color="#15FF5F"/>
<stop offset="0.1275" stop-color="#12E86B"/>
<stop offset="1" stop-color="#0051BA"/>
</linearGradient>
<linearGradient id="paint3_linear_1_285" x1="-136.502" y1="26.9145" x2="219.755" y2="274.048" gradientUnits="userSpaceOnUse">
<stop stop-color="#15FF5F"/>
<stop offset="0.1275" stop-color="#12E86B"/>
<stop offset="1" stop-color="#0051BA"/>
</linearGradient>
<linearGradient id="paint4_linear_1_285" x1="-93.4483" y1="-35.1545" x2="262.81" y2="211.979" gradientUnits="userSpaceOnUse">
<stop stop-color="#15FF5F"/>
<stop offset="0.1275" stop-color="#12E86B"/>
<stop offset="1" stop-color="#0051BA"/>
</linearGradient>
</defs>
</svg>

